<?xml version="1.0" encoding="UTF-8"?><svg xmlns="http://www.w3.org/2000/svg" xmlns:xlink="http://www.w3.org/1999/xlink" fill-opacity="1" color-rendering="auto" color-interpolation="auto" text-rendering="auto" stroke="black" stroke-linecap="square" width="1155" stroke-miterlimit="10" shape-rendering="auto" stroke-opacity="1" fill="black" stroke-dasharray="none" font-weight="normal" stroke-width="1" height="973" font-family="'Dialog'" font-style="normal" stroke-linejoin="miter" font-size="12" stroke-dashoffset="0" image-rendering="auto">
  <!--Generated by ySVG 2.5-->
  <defs id="genericDefs"/>
  <g>
    <defs id="defs1">
      <clipPath clipPathUnits="userSpaceOnUse" id="clipPath1">
        <path d="M0 0 L1155 0 L1155 973 L0 973 L0 0 Z"/>
      </clipPath>
      <clipPath clipPathUnits="userSpaceOnUse" id="clipPath2">
        <path d="M-15 17 L1140 17 L1140 990 L-15 990 L-15 17 Z"/>
      </clipPath>
      <clipPath clipPathUnits="userSpaceOnUse" id="clipPath3">
        <path d="M502.2103 -202.1932 L507.2499 952.7958 L-465.7408 957.0413 L-470.7804 -197.9477 L502.2103 -202.1932 Z"/>
      </clipPath>
      <clipPath clipPathUnits="userSpaceOnUse" id="clipPath4">
        <path d="M-187.6256 295.8168 L-182.586 -859.1722 L790.4047 -854.9267 L785.3651 300.0623 L-187.6256 295.8168 Z"/>
      </clipPath>
      <clipPath clipPathUnits="userSpaceOnUse" id="clipPath5">
        <path d="M354.1634 -976.5546 L359.203 178.4344 L-613.7877 182.6799 L-618.8273 -972.3091 L354.1634 -976.5546 Z"/>
      </clipPath>
      <clipPath clipPathUnits="userSpaceOnUse" id="clipPath6">
        <path d="M478.0848 -345.4977 L483.1245 809.4913 L-489.8663 813.7368 L-494.9059 -341.2522 L478.0848 -345.4977 Z"/>
      </clipPath>
      <clipPath clipPathUnits="userSpaceOnUse" id="clipPath7">
        <path d="M-243.8676 542.0737 L-238.8279 -612.9153 L734.1628 -608.6698 L729.1232 546.3192 L-243.8676 542.0737 Z"/>
      </clipPath>
      <clipPath clipPathUnits="userSpaceOnUse" id="clipPath8">
        <path d="M605.4655 -714.4655 L610.5051 440.5236 L-362.4856 444.7691 L-367.5252 -710.2199 L605.4655 -714.4655 Z"/>
      </clipPath>
    </defs>
    <g fill="white" text-rendering="geometricPrecision" shape-rendering="geometricPrecision" transform="translate(15,-17)" stroke="white">
      <rect x="-15" width="1155" height="973" y="17" clip-path="url(#clipPath2)" stroke="none"/>
    </g>
    <g fill="rgb(245,245,245)" text-rendering="geometricPrecision" shape-rendering="geometricPrecision" transform="matrix(1,0,0,1,15,-17)" stroke="rgb(245,245,245)">
      <rect x="0" y="100" clip-path="url(#clipPath2)" width="325" rx="4" ry="4" height="475" stroke="none"/>
      <rect x="0" y="100" clip-path="url(#clipPath2)" fill="rgb(235,235,235)" width="325" height="21.666" stroke="none"/>
    </g>
    <g font-size="15" stroke-linecap="butt" transform="matrix(1,0,0,1,15,-17)" text-rendering="geometricPrecision" font-family="sans-serif" shape-rendering="geometricPrecision" stroke-miterlimit="1.45">
      <text x="257.7339" xml:space="preserve" y="116.502" clip-path="url(#clipPath2)" stroke="none">Library A</text>
      <rect x="0" y="100" clip-path="url(#clipPath2)" fill="none" width="325" rx="4" ry="4" height="475" stroke-width="3"/>
    </g>
    <g fill="rgb(255,204,0)" text-rendering="geometricPrecision" shape-rendering="geometricPrecision" transform="matrix(1,0,0,1,15,-17)" stroke="rgb(255,204,0)">
      <rect x="96" width="158" height="57" y="446.5" clip-path="url(#clipPath2)" stroke="none"/>
    </g>
    <g font-size="32" stroke-linecap="butt" transform="matrix(1,0,0,1,15,-17)" text-rendering="geometricPrecision" font-family="'Courier New'" shape-rendering="geometricPrecision" font-weight="bold" stroke-miterlimit="1.45">
      <text x="107.7891" xml:space="preserve" y="483.5156" clip-path="url(#clipPath2)" stroke="none">A:2.0.0</text>
      <rect fill="none" x="96" width="158" height="57" y="446.5" clip-path="url(#clipPath2)"/>
    </g>
    <g fill="rgb(255,204,0)" text-rendering="geometricPrecision" shape-rendering="geometricPrecision" transform="matrix(1,0,0,1,15,-17)" stroke="rgb(255,204,0)">
      <rect x="91.5" width="167" height="57" y="196.5" clip-path="url(#clipPath2)" stroke="none"/>
    </g>
    <g font-size="32" stroke-linecap="butt" transform="matrix(1,0,0,1,15,-17)" text-rendering="geometricPrecision" font-family="'Courier New'" shape-rendering="geometricPrecision" font-weight="bold" stroke-miterlimit="1.45">
      <text x="107.7891" xml:space="preserve" y="233.5156" clip-path="url(#clipPath2)" stroke="none">A:1.0.0</text>
      <rect fill="none" x="91.5" width="167" height="57" y="196.5" clip-path="url(#clipPath2)"/>
    </g>
    <g fill="rgb(245,245,245)" text-rendering="geometricPrecision" shape-rendering="geometricPrecision" transform="matrix(1,0,0,1,15,-17)" stroke="rgb(245,245,245)">
      <rect x="350" y="32.0549" clip-path="url(#clipPath2)" width="775" rx="4" ry="4" height="292.9451" stroke="none"/>
      <rect x="350" y="32.0549" clip-path="url(#clipPath2)" fill="rgb(235,235,235)" width="775" height="21.666" stroke="none"/>
    </g>
    <g font-size="15" stroke-linecap="butt" transform="matrix(1,0,0,1,15,-17)" text-rendering="geometricPrecision" font-family="sans-serif" shape-rendering="geometricPrecision" stroke-miterlimit="1.45">
      <text x="1059.4551" xml:space="preserve" y="48.5568" clip-path="url(#clipPath2)" stroke="none">Library B</text>
      <rect x="350" y="32.0549" clip-path="url(#clipPath2)" fill="none" width="775" rx="4" ry="4" height="292.9451" stroke-width="3"/>
    </g>
    <g fill="rgb(255,204,0)" text-rendering="geometricPrecision" shape-rendering="geometricPrecision" transform="matrix(1,0,0,1,15,-17)" stroke="rgb(255,204,0)">
      <rect x="866.5" width="167" height="57" y="196.5" clip-path="url(#clipPath2)" stroke="none"/>
    </g>
    <g font-size="32" stroke-linecap="butt" transform="matrix(1,0,0,1,15,-17)" text-rendering="geometricPrecision" font-family="'Courier New'" shape-rendering="geometricPrecision" font-weight="bold" stroke-miterlimit="1.45">
      <text x="882.7891" xml:space="preserve" y="233.5156" clip-path="url(#clipPath2)" stroke="none">B:1.2.0</text>
      <rect fill="none" x="866.5" width="167" height="57" y="196.5" clip-path="url(#clipPath2)"/>
    </g>
    <g fill="rgb(255,204,0)" text-rendering="geometricPrecision" shape-rendering="geometricPrecision" transform="matrix(1,0,0,1,15,-17)" stroke="rgb(255,204,0)">
      <rect x="644.25" width="161.5" height="57" y="196.5" clip-path="url(#clipPath2)" stroke="none"/>
    </g>
    <g font-size="32" stroke-linecap="butt" transform="matrix(1,0,0,1,15,-17)" text-rendering="geometricPrecision" font-family="'Courier New'" shape-rendering="geometricPrecision" font-weight="bold" stroke-miterlimit="1.45">
      <text x="657.7891" xml:space="preserve" y="233.5156" clip-path="url(#clipPath2)" stroke="none">B:1.1.0</text>
      <rect fill="none" x="644.25" width="161.5" height="57" y="196.5" clip-path="url(#clipPath2)"/>
    </g>
    <g fill="rgb(255,204,0)" text-rendering="geometricPrecision" shape-rendering="geometricPrecision" transform="matrix(1,0,0,1,15,-17)" stroke="rgb(255,204,0)">
      <rect x="416.5" width="167" height="57" y="196.5" clip-path="url(#clipPath2)" stroke="none"/>
    </g>
    <g font-size="32" stroke-linecap="butt" transform="matrix(1,0,0,1,15,-17)" text-rendering="geometricPrecision" font-family="'Courier New'" shape-rendering="geometricPrecision" font-weight="bold" stroke-miterlimit="1.45">
      <text x="432.7891" xml:space="preserve" y="233.5156" clip-path="url(#clipPath2)" stroke="none">B:1.0.0</text>
      <rect fill="none" x="416.5" width="167" height="57" y="196.5" clip-path="url(#clipPath2)"/>
      <path fill="none" d="M175 503.5 L175 975 L1075 975 L1075 225 L1041.5 225" clip-path="url(#clipPath2)"/>
      <path d="M1033.5 225 L1045.5 230 L1042.5 225 L1045.5 220 Z" stroke="none" clip-path="url(#clipPath2)"/>
    </g>
    <g text-rendering="geometricPrecision" stroke-miterlimit="1.45" shape-rendering="geometricPrecision" font-family="sans-serif" transform="matrix(0.0044,-1,1,0.0044,200,503.0878)" stroke-linecap="butt">
      <text x="2" xml:space="preserve" y="13.6016" clip-path="url(#clipPath3)" stroke="none">1</text>
    </g>
    <g text-rendering="geometricPrecision" stroke-miterlimit="1.45" shape-rendering="geometricPrecision" transform="matrix(1,0,0,1,15,-17)" stroke-linecap="butt">
      <path fill="none" d="M175 196.4703 L175 75 L725 75 L725 188.4703" clip-path="url(#clipPath2)"/>
      <path d="M725 196.4703 L730 184.4703 L725 187.4703 L720 184.4703 Z" clip-path="url(#clipPath2)" stroke="none"/>
      <text x="141.2061" xml:space="preserve" y="186.9688" clip-path="url(#clipPath2)" font-family="sans-serif" stroke="none">4</text>
      <path fill="none" d="M258.5 225 L408.4614 225" clip-path="url(#clipPath2)"/>
      <path d="M416.4614 225 L404.4614 220 L407.4614 225 L404.4614 230 Z" clip-path="url(#clipPath2)" stroke="none"/>
    </g>
    <g text-rendering="geometricPrecision" stroke-miterlimit="1.45" shape-rendering="geometricPrecision" font-family="sans-serif" transform="matrix(0.0044,1,-1,0.0044,296.6326,186.3331)" stroke-linecap="butt">
      <text x="2" xml:space="preserve" y="13.6016" clip-path="url(#clipPath4)" stroke="none">4</text>
    </g>
    <g fill="rgb(245,245,245)" text-rendering="geometricPrecision" shape-rendering="geometricPrecision" transform="matrix(1,0,0,1,15,-17)" stroke="rgb(245,245,245)">
      <rect x="350" y="350" clip-path="url(#clipPath2)" width="525" rx="4" ry="4" height="225" stroke="none"/>
      <rect x="350" y="350" clip-path="url(#clipPath2)" fill="rgb(235,235,235)" width="525" height="21.666" stroke="none"/>
    </g>
    <g font-size="15" stroke-linecap="butt" transform="matrix(1,0,0,1,15,-17)" text-rendering="geometricPrecision" font-family="sans-serif" shape-rendering="geometricPrecision" stroke-miterlimit="1.45">
      <text x="807.7046" xml:space="preserve" y="366.502" clip-path="url(#clipPath2)" stroke="none">Library C</text>
      <rect x="350" y="350" clip-path="url(#clipPath2)" fill="none" width="525" stroke-dasharray="6,2" rx="4" ry="4" height="225"/>
    </g>
    <g fill="rgb(255,204,0)" text-rendering="geometricPrecision" shape-rendering="geometricPrecision" transform="matrix(1,0,0,1,15,-17)" stroke="rgb(255,204,0)">
      <rect x="641.5" width="167" height="57" y="446.5" clip-path="url(#clipPath2)" stroke="none"/>
    </g>
    <g font-size="32" stroke-linecap="butt" transform="matrix(1,0,0,1,15,-17)" text-rendering="geometricPrecision" font-family="'Courier New'" shape-rendering="geometricPrecision" font-weight="bold" stroke-miterlimit="1.45">
      <text x="657.7891" xml:space="preserve" y="483.5156" clip-path="url(#clipPath2)" stroke="none">C:1.2.0</text>
      <rect fill="none" x="641.5" width="167" height="57" y="446.5" clip-path="url(#clipPath2)"/>
    </g>
    <g fill="rgb(255,204,0)" text-rendering="geometricPrecision" shape-rendering="geometricPrecision" transform="matrix(1,0,0,1,15,-17)" stroke="rgb(255,204,0)">
      <rect x="421" width="158" height="57" y="446.5" clip-path="url(#clipPath2)" stroke="none"/>
    </g>
    <g font-size="32" stroke-linecap="butt" transform="matrix(1,0,0,1,15,-17)" text-rendering="geometricPrecision" font-family="'Courier New'" shape-rendering="geometricPrecision" font-weight="bold" stroke-miterlimit="1.45">
      <text x="432.7891" xml:space="preserve" y="483.5156" clip-path="url(#clipPath2)" stroke="none">C:1.1.0</text>
      <rect fill="none" x="421" width="158" height="57" y="446.5" clip-path="url(#clipPath2)"/>
      <path fill="none" d="M950 253.5 L950 475 L816.5 475" clip-path="url(#clipPath2)"/>
      <path d="M808.5 475 L820.5 480 L817.5 475 L820.5 470 Z" stroke="none" clip-path="url(#clipPath2)"/>
    </g>
    <g text-rendering="geometricPrecision" stroke-miterlimit="1.45" shape-rendering="geometricPrecision" font-family="sans-serif" transform="matrix(0.0044,-1,1,0.0044,975,358.4211)" stroke-linecap="butt">
      <text x="2" xml:space="preserve" y="13.6016" clip-path="url(#clipPath5)" stroke="none">3</text>
    </g>
    <g text-rendering="geometricPrecision" stroke-miterlimit="1.45" shape-rendering="geometricPrecision" transform="matrix(1,0,0,1,15,-17)" stroke-linecap="butt">
      <path fill="none" d="M725 253.5 L725 438.4529" clip-path="url(#clipPath2)"/>
      <path d="M725 446.4529 L730 434.4529 L725 437.4529 L720 434.4529 Z" clip-path="url(#clipPath2)" stroke="none"/>
      <text x="691.2061" xml:space="preserve" y="272.1016" clip-path="url(#clipPath2)" font-family="sans-serif" stroke="none">8</text>
      <path fill="none" d="M254 475 L412.9592 475" clip-path="url(#clipPath2)"/>
      <path d="M420.9592 475 L408.9592 470 L411.9592 475 L408.9592 480 Z" clip-path="url(#clipPath2)" stroke="none"/>
    </g>
    <g text-rendering="geometricPrecision" stroke-miterlimit="1.45" shape-rendering="geometricPrecision" font-family="sans-serif" transform="matrix(0.0044,-1,1,0.0044,343.4084,479.5878)" stroke-linecap="butt">
      <text x="2" xml:space="preserve" y="13.6016" clip-path="url(#clipPath6)" stroke="none">2</text>
    </g>
    <g text-rendering="geometricPrecision" stroke-miterlimit="1.45" shape-rendering="geometricPrecision" transform="matrix(1,0,0,1,15,-17)" stroke-linecap="butt">
      <path fill="none" d="M500 253.5 L500 438.4529" clip-path="url(#clipPath2)"/>
      <path d="M500 446.4529 L505 434.4529 L500 437.4529 L495 434.4529 Z" clip-path="url(#clipPath2)" stroke="none"/>
    </g>
    <g text-rendering="geometricPrecision" stroke-miterlimit="1.45" shape-rendering="geometricPrecision" font-family="sans-serif" transform="matrix(0.0044,1,-1,0.0044,543.1326,241.5)" stroke-linecap="butt">
      <text x="2" xml:space="preserve" y="13.6016" clip-path="url(#clipPath7)" stroke="none">6</text>
    </g>
    <g fill="rgb(245,245,245)" text-rendering="geometricPrecision" shape-rendering="geometricPrecision" transform="matrix(1,0,0,1,15,-17)" stroke="rgb(245,245,245)">
      <rect x="575" y="600" clip-path="url(#clipPath2)" width="300" rx="4" ry="4" height="350" stroke="none"/>
      <rect x="575" y="600" clip-path="url(#clipPath2)" fill="rgb(235,235,235)" width="300" height="21.666" stroke="none"/>
    </g>
    <g font-size="15" stroke-linecap="butt" transform="matrix(1,0,0,1,15,-17)" text-rendering="geometricPrecision" font-family="sans-serif" shape-rendering="geometricPrecision" stroke-miterlimit="1.45">
      <text x="806.8477" xml:space="preserve" y="616.502" clip-path="url(#clipPath2)" stroke="none">Library D</text>
      <rect x="575" y="600" clip-path="url(#clipPath2)" fill="none" width="300" stroke-dasharray="6,2" rx="4" ry="4" height="350"/>
    </g>
    <g fill="rgb(255,204,0)" text-rendering="geometricPrecision" shape-rendering="geometricPrecision" transform="matrix(1,0,0,1,15,-17)" stroke="rgb(255,204,0)">
      <rect x="635.6489" width="178.7021" height="57" y="821.5" clip-path="url(#clipPath2)" stroke="none"/>
    </g>
    <g font-size="32" stroke-linecap="butt" transform="matrix(1,0,0,1,15,-17)" text-rendering="geometricPrecision" font-family="'Courier New'" shape-rendering="geometricPrecision" font-weight="bold" stroke-miterlimit="1.45">
      <text x="657.7891" xml:space="preserve" y="858.5156" clip-path="url(#clipPath2)" stroke="none">D:1.1.0</text>
      <rect fill="none" x="635.6489" width="178.7021" height="57" y="821.5" clip-path="url(#clipPath2)"/>
    </g>
    <g fill="rgb(255,204,0)" text-rendering="geometricPrecision" shape-rendering="geometricPrecision" transform="matrix(1,0,0,1,15,-17)" stroke="rgb(255,204,0)">
      <rect x="635.6489" width="178.7021" height="57" y="696.5" clip-path="url(#clipPath2)" stroke="none"/>
    </g>
    <g font-size="32" stroke-linecap="butt" transform="matrix(1,0,0,1,15,-17)" text-rendering="geometricPrecision" font-family="'Courier New'" shape-rendering="geometricPrecision" font-weight="bold" stroke-miterlimit="1.45">
      <text x="657.7891" xml:space="preserve" y="733.5156" clip-path="url(#clipPath2)" stroke="none">D:1.0.0</text>
      <rect fill="none" x="635.6489" width="178.7021" height="57" y="696.5" clip-path="url(#clipPath2)"/>
      <path fill="none" d="M91.4595 225 L50 225 L50 850 L627.6132 850" clip-path="url(#clipPath2)"/>
      <path d="M635.6132 850 L623.6132 845 L626.6132 850 L623.6132 855 Z" stroke="none" clip-path="url(#clipPath2)"/>
      <text x="16.2061" font-size="12" y="229.5352" clip-path="url(#clipPath2)" font-family="sans-serif" stroke="none" font-weight="normal" xml:space="preserve">5</text>
      <path fill="none" d="M725 503.5 L725 688.4529" clip-path="url(#clipPath2)"/>
      <path d="M725 696.4529 L730 684.4529 L725 687.4529 L720 684.4529 Z" stroke="none" clip-path="url(#clipPath2)"/>
    </g>
    <g text-rendering="geometricPrecision" stroke-miterlimit="1.45" shape-rendering="geometricPrecision" font-family="sans-serif" transform="matrix(0.0044,-1,1,0.0044,711.8168,608.5772)" stroke-linecap="butt">
      <text x="2" xml:space="preserve" y="13.6016" clip-path="url(#clipPath8)" stroke="none">7</text>
    </g>
  </g>
</svg>
