<?xml version="1.0" encoding="UTF-8"?>
<!DOCTYPE svg PUBLIC "-//W3C//DTD SVG 1.1//EN" "http://www.w3.org/Graphics/SVG/1.1/DTD/svg11.dtd">
<svg version="1.1" xmlns="http://www.w3.org/2000/svg" xmlns:xlink="http://www.w3.org/1999/xlink" x="0px" y="0px" width="679" height="360" viewBox="0, 0, 679, 360">
  <g id="Layer 1">
    <path d="M150.828,219.334 L165.57,219.334 L165.57,287.15 L150.828,287.15 z" fill="#000000"/>
    <path d="M260.903,287.15 L260.903,242.921 C260.903,235.62 257.674,230.706 249.671,230.706 C243.072,230.706 236.894,235.2 233.946,239.692 L233.946,287.149 L219.203,287.149 L219.203,242.92 C219.203,235.619 216.114,230.705 208.111,230.705 C201.512,230.705 195.475,235.338 192.386,239.691 L192.386,287.148 L177.644,287.148 L177.644,219.332 L192.386,219.332 L192.386,228.459 C195.335,224.387 204.18,217.648 214.57,217.648 C224.679,217.648 230.857,222.703 233.103,230.003 C236.894,223.966 245.88,217.648 256.129,217.648 C268.484,217.648 275.645,224.386 275.645,238.146 L275.645,287.148 L260.903,287.148 z" fill="#000000"/>
    <path d="M302.464,277.742 L302.464,312.984 L287.722,312.984 L287.722,219.334 L302.464,219.334 L302.464,228.602 C307.519,221.862 315.381,217.651 324.227,217.651 C341.778,217.651 354.274,230.848 354.274,253.172 C354.274,275.496 341.778,288.834 324.227,288.834 C315.662,288.834 308.08,284.902 302.464,277.742 z M339.11,253.172 C339.11,239.975 331.527,230.707 319.874,230.707 C312.994,230.707 305.833,234.639 302.464,239.693 L302.464,266.509 C305.693,271.564 312.994,275.777 319.874,275.777 C331.527,275.777 339.11,266.369 339.11,253.172 z" fill="#000000"/>
    <path d="M403.556,287.15 L403.556,279.709 C398.501,285.605 390.498,288.834 381.512,288.834 C370.56,288.834 358.065,281.252 358.065,266.369 C358.065,250.644 370.42,244.185 381.512,244.185 C390.779,244.185 398.501,247.134 403.556,252.89 L403.556,242.781 C403.556,234.92 396.956,230.146 387.69,230.146 C380.108,230.146 373.369,232.953 367.612,238.851 L361.434,228.601 C369.297,221.019 379.125,217.65 389.937,217.65 C405.1,217.65 418.298,223.968 418.298,242.08 L418.298,287.15 L403.556,287.15 z M403.556,271.705 L403.556,261.314 C400.045,256.681 393.728,254.294 387.41,254.294 C379.126,254.294 372.807,259.208 372.807,266.509 C372.807,273.95 379.125,278.724 387.41,278.724 C393.728,278.725 400.045,276.338 403.556,271.705 z" fill="#000000"/>
    <path d="M426.3,253.172 C426.3,232.674 440.761,217.651 461.26,217.651 C474.599,217.651 482.461,223.266 487.235,229.725 L477.547,238.571 C473.756,233.235 468.561,230.708 461.962,230.708 C449.747,230.708 441.463,239.976 441.463,253.173 C441.463,266.37 449.747,275.778 461.962,275.778 C468.561,275.778 473.756,272.969 477.547,267.633 L487.235,276.76 C482.462,283.078 474.599,288.834 461.26,288.834 C440.761,288.834 426.3,273.67 426.3,253.172 z" fill="#000000"/>
    <path d="M499.578,271.283 L499.578,232.111 L488.347,232.111 L488.347,219.334 L499.578,219.334 L499.578,200.802 L514.321,200.802 L514.321,219.334 L528.08,219.334 L528.08,232.111 L514.321,232.111 L514.321,267.632 C514.321,272.267 516.567,275.777 520.779,275.777 C523.588,275.777 526.115,274.513 527.238,273.25 L530.748,284.482 C528.08,286.869 523.727,288.834 516.988,288.834 C505.476,288.834 499.578,282.656 499.578,271.283 z" fill="#000000"/>
    <path d="M167.553,207.987 C167.719,213.151 163.667,217.477 158.501,217.643 C153.335,217.807 149.012,213.754 148.846,208.588 C148.679,203.424 152.732,199.1 157.899,198.935 C163.065,198.768 167.386,202.821 167.553,207.987 z" fill="#E00516"/>
    <g>
      <path d="M473.498,167.813 C473.498,183.154 461.062,195.59 445.721,195.59 C430.38,195.59 417.944,183.154 417.944,167.813 C417.944,152.472 430.38,140.036 445.721,140.036 C461.062,140.036 473.498,152.472 473.498,167.813 z" fill="#000000"/>
      <path d="M447.013,153.602 C447.013,154.315 446.435,154.894 445.721,154.894 L445.721,154.894 C445.007,154.894 444.43,154.315 444.43,153.602 L444.43,48.308 C444.43,47.595 445.007,47.016 445.721,47.016 L445.721,47.016 C446.435,47.016 447.013,47.594 447.013,48.308 L447.013,153.602 z" fill="#000000"/>
    </g>
    <g>
      <path d="M419.192,167.813 C419.192,183.154 406.756,195.59 391.415,195.59 C376.074,195.59 363.638,183.154 363.638,167.813 C363.638,152.472 376.074,140.036 391.415,140.036 C406.756,140.036 419.192,152.472 419.192,167.813 z" fill="#000000"/>
      <path d="M392.706,153.602 C392.706,154.315 392.129,154.894 391.414,154.894 L391.414,154.894 C390.7,154.894 390.122,154.315 390.122,153.602 L390.122,48.308 C390.122,47.595 390.7,47.016 391.414,47.016 L391.414,47.016 C392.129,47.016 392.706,47.594 392.706,48.308 L392.706,153.602 z" fill="#000000"/>
    </g>
    <g>
      <path d="M364.885,167.813 C364.885,183.154 352.449,195.59 337.108,195.59 C321.767,195.59 309.331,183.154 309.331,167.813 C309.331,152.472 321.767,140.036 337.108,140.036 C352.449,140.036 364.885,152.472 364.885,167.813 z" fill="#000000"/>
      <path d="M338.399,153.602 C338.399,154.315 337.821,154.894 337.107,154.894 L337.107,154.894 C336.393,154.894 335.815,154.315 335.815,153.602 L335.815,48.308 C335.815,47.595 336.393,47.016 337.107,47.016 L337.107,47.016 C337.82,47.016 338.399,47.594 338.399,48.308 L338.399,153.602 z" fill="#000000"/>
    </g>
    <g>
      <path d="M310.578,167.813 C310.578,183.154 298.142,195.59 282.801,195.59 C267.46,195.59 255.024,183.154 255.024,167.813 C255.024,152.472 267.46,140.036 282.801,140.036 C298.142,140.036 310.578,152.472 310.578,167.813 z" fill="#000000"/>
      <path d="M284.092,153.602 C284.092,154.315 283.514,154.894 282.8,154.894 L282.8,154.894 C282.086,154.894 281.508,154.315 281.508,153.602 L281.508,48.308 C281.508,47.595 282.086,47.016 282.8,47.016 L282.8,47.016 C283.514,47.016 284.092,47.594 284.092,48.308 L284.092,153.602 z" fill="#000000"/>
    </g>
    <path d="M213.644,146.711 C213.447,147.374 212.952,147.658 212.536,147.345 L212.536,147.345 C212.119,147.031 211.942,146.242 212.138,145.579 L241.11,47.777 C241.306,47.114 241.803,46.831 242.218,47.143 L242.218,47.143 C242.635,47.456 242.812,48.246 242.616,48.909 L213.644,146.711 z" fill="#000000"/>
    <path d="M235.061,159.032 C235.061,174.373 222.625,186.809 207.284,186.809 C191.943,186.809 179.507,174.373 179.507,159.032 C179.507,143.691 191.943,131.255 207.284,131.255 C222.625,131.255 235.061,143.691 235.061,159.032 z" fill="#E00516"/>
    <path d="M226.495,151.8 C226.495,158.246 221.27,163.471 214.824,163.471 C208.378,163.471 203.153,158.246 203.153,151.8 C203.153,145.354 208.378,140.129 214.824,140.129 C221.27,140.129 226.495,145.354 226.495,151.8 z" fill="url(#Gradient_1)" opacity="0.5"/>
    <path d="M299.987,159.143 C299.987,165.589 294.762,170.814 288.316,170.814 C281.87,170.814 276.645,165.589 276.645,159.143 C276.645,152.697 281.87,147.472 288.316,147.472 C294.762,147.472 299.987,152.697 299.987,159.143 z" fill="url(#Gradient_2)" opacity="0.5"/>
    <path d="M354.274,159.143 C354.274,165.589 349.049,170.814 342.603,170.814 C336.157,170.814 330.932,165.589 330.932,159.143 C330.932,152.697 336.157,147.472 342.603,147.472 C349.049,147.472 354.274,152.697 354.274,159.143 z" fill="url(#Gradient_3)" opacity="0.5"/>
    <path d="M409.557,159.143 C409.557,165.589 404.331,170.814 397.886,170.814 C391.44,170.814 386.215,165.589 386.215,159.143 C386.215,152.697 391.44,147.472 397.886,147.472 C404.331,147.472 409.557,152.697 409.557,159.143 z" fill="url(#Gradient_4)" opacity="0.5"/>
    <path d="M465.273,159.143 C465.273,165.589 460.048,170.814 453.602,170.814 C447.157,170.814 441.931,165.589 441.931,159.143 C441.931,152.697 447.157,147.472 453.602,147.472 C460.048,147.472 465.273,152.697 465.273,159.143 z" fill="url(#Gradient_5)" opacity="0.5"/>
  </g>
  <defs>
    <radialGradient id="Gradient_1" gradientUnits="userSpaceOnUse" cx="214.854" cy="152.5" r="16.03">
      <stop offset="0" stop-color="#FFFFFF"/>
      <stop offset="0.795" stop-color="#FFFFFF" stop-opacity="0"/>
      <stop offset="1" stop-color="#FFFFFF" stop-opacity="0"/>
    </radialGradient>
    <radialGradient id="Gradient_2" gradientUnits="userSpaceOnUse" cx="288.346" cy="159.843" r="16.03">
      <stop offset="0" stop-color="#FFFFFF"/>
      <stop offset="0.795" stop-color="#FFFFFF" stop-opacity="0"/>
      <stop offset="1" stop-color="#FFFFFF" stop-opacity="0"/>
    </radialGradient>
    <radialGradient id="Gradient_3" gradientUnits="userSpaceOnUse" cx="342.633" cy="159.843" r="16.03">
      <stop offset="0" stop-color="#FFFFFF"/>
      <stop offset="0.795" stop-color="#FFFFFF" stop-opacity="0"/>
      <stop offset="1" stop-color="#FFFFFF" stop-opacity="0"/>
    </radialGradient>
    <radialGradient id="Gradient_4" gradientUnits="userSpaceOnUse" cx="397.916" cy="159.843" r="16.03">
      <stop offset="0" stop-color="#FFFFFF"/>
      <stop offset="0.795" stop-color="#FFFFFF" stop-opacity="0"/>
      <stop offset="1" stop-color="#FFFFFF" stop-opacity="0"/>
    </radialGradient>
    <radialGradient id="Gradient_5" gradientUnits="userSpaceOnUse" cx="453.632" cy="159.843" r="16.03">
      <stop offset="0" stop-color="#FFFFFF"/>
      <stop offset="0.795" stop-color="#FFFFFF" stop-opacity="0"/>
      <stop offset="1" stop-color="#FFFFFF" stop-opacity="0"/>
    </radialGradient>
  </defs>
</svg>
