<?xml version="1.0" encoding="UTF-8"?><svg xmlns="http://www.w3.org/2000/svg" xmlns:xlink="http://www.w3.org/1999/xlink" fill-opacity="1" color-rendering="auto" color-interpolation="auto" text-rendering="auto" stroke="black" stroke-linecap="square" width="755" stroke-miterlimit="10" shape-rendering="auto" stroke-opacity="1" fill="black" stroke-dasharray="none" font-weight="normal" stroke-width="1" height="805" font-family="'Dialog'" font-style="normal" stroke-linejoin="miter" font-size="12" stroke-dashoffset="0" image-rendering="auto">
  <!--Generated by ySVG 2.5-->
  <defs id="genericDefs"/>
  <g>
    <defs id="defs1">
      <clipPath clipPathUnits="userSpaceOnUse" id="clipPath1">
        <path d="M0 0 L755 0 L755 805 L0 805 L0 0 Z"/>
      </clipPath>
      <clipPath clipPathUnits="userSpaceOnUse" id="clipPath2">
        <path d="M-15 -15 L740 -15 L740 790 L-15 790 L-15 -15 Z"/>
      </clipPath>
      <clipPath clipPathUnits="userSpaceOnUse" id="clipPath3">
        <path d="M445.429 -151.945 L448.7233 603.0479 L-356.269 606.5603 L-359.5633 -148.4325 L445.429 -151.945 Z"/>
      </clipPath>
      <clipPath clipPathUnits="userSpaceOnUse" id="clipPath4">
        <path d="M-194.222 203.2871 L-190.9277 -551.7057 L614.0647 -548.1932 L610.7704 206.7996 L-194.222 203.2871 Z"/>
      </clipPath>
      <clipPath clipPathUnits="userSpaceOnUse" id="clipPath5">
        <path d="M330.6908 -626.4489 L333.9851 128.5439 L-471.0072 132.0564 L-474.3015 -622.9364 L330.6908 -626.4489 Z"/>
      </clipPath>
      <clipPath clipPathUnits="userSpaceOnUse" id="clipPath6">
        <path d="M435.5215 -245.3111 L438.8159 509.6818 L-366.1765 513.1942 L-369.4708 -241.7986 L435.5215 -245.3111 Z"/>
      </clipPath>
      <clipPath clipPathUnits="userSpaceOnUse" id="clipPath7">
        <path d="M-236.2131 392.1057 L-232.9188 -362.8871 L572.0735 -359.3746 L568.7792 395.6182 L-236.2131 392.1057 Z"/>
      </clipPath>
      <clipPath clipPathUnits="userSpaceOnUse" id="clipPath8">
        <path d="M536.0117 -464.16 L539.306 290.8328 L-265.6864 294.3453 L-268.9807 -460.6476 L536.0117 -464.16 Z"/>
      </clipPath>
    </defs>
    <g fill="white" text-rendering="geometricPrecision" shape-rendering="geometricPrecision" transform="translate(15,15)" stroke="white">
      <rect x="-15" width="755" height="805" y="-15" clip-path="url(#clipPath2)" stroke="none"/>
    </g>
    <g fill="rgb(245,245,245)" text-rendering="geometricPrecision" shape-rendering="geometricPrecision" transform="matrix(1,0,0,1,15,15)" stroke="rgb(245,245,245)">
      <rect x="0" y="100" clip-path="url(#clipPath2)" width="225" rx="4" ry="4" height="375" stroke="none"/>
      <rect x="0" y="100" clip-path="url(#clipPath2)" fill="rgb(235,235,235)" width="225" height="21.666" stroke="none"/>
    </g>
    <g font-size="15" stroke-linecap="butt" transform="matrix(1,0,0,1,15,15)" text-rendering="geometricPrecision" font-family="sans-serif" shape-rendering="geometricPrecision" stroke-miterlimit="1.45">
      <text x="157.7339" xml:space="preserve" y="116.502" clip-path="url(#clipPath2)" stroke="none">Library A</text>
      <rect x="0" y="100" clip-path="url(#clipPath2)" fill="none" width="225" rx="4" ry="4" height="375" stroke-width="3"/>
    </g>
    <g fill="rgb(255,204,0)" text-rendering="geometricPrecision" shape-rendering="geometricPrecision" transform="matrix(1,0,0,1,15,15)" stroke="rgb(255,204,0)">
      <rect x="84" width="82" height="29" y="385.5" clip-path="url(#clipPath2)" stroke="none"/>
    </g>
    <g stroke-linecap="butt" transform="matrix(1,0,0,1,15,15)" text-rendering="geometricPrecision" font-family="'Courier New'" shape-rendering="geometricPrecision" font-weight="bold" stroke-miterlimit="1.45">
      <text x="99.7959" xml:space="preserve" y="403.1934" clip-path="url(#clipPath2)" stroke="none">A:2.0.0</text>
      <rect fill="none" x="84" width="82" height="29" y="385.5" clip-path="url(#clipPath2)"/>
    </g>
    <g fill="rgb(255,204,0)" text-rendering="geometricPrecision" shape-rendering="geometricPrecision" transform="matrix(1,0,0,1,15,15)" stroke="rgb(255,204,0)">
      <rect x="84" width="82" height="29" y="185.5" clip-path="url(#clipPath2)" stroke="none"/>
    </g>
    <g stroke-linecap="butt" transform="matrix(1,0,0,1,15,15)" text-rendering="geometricPrecision" font-family="'Courier New'" shape-rendering="geometricPrecision" font-weight="bold" stroke-miterlimit="1.45">
      <text x="99.7959" xml:space="preserve" y="203.1934" clip-path="url(#clipPath2)" stroke="none">A:1.0.0</text>
      <rect fill="none" x="84" width="82" height="29" y="185.5" clip-path="url(#clipPath2)"/>
    </g>
    <g fill="rgb(245,245,245)" text-rendering="geometricPrecision" shape-rendering="geometricPrecision" transform="matrix(1,0,0,1,15,15)" stroke="rgb(245,245,245)">
      <rect x="250" y="0" clip-path="url(#clipPath2)" width="475" rx="4" ry="4" height="275" stroke="none"/>
      <rect x="250" y="0" clip-path="url(#clipPath2)" fill="rgb(235,235,235)" width="475" height="21.666" stroke="none"/>
    </g>
    <g font-size="15" stroke-linecap="butt" transform="matrix(1,0,0,1,15,15)" text-rendering="geometricPrecision" font-family="sans-serif" shape-rendering="geometricPrecision" stroke-miterlimit="1.45">
      <text x="659.4551" xml:space="preserve" y="16.502" clip-path="url(#clipPath2)" stroke="none">Library B</text>
      <rect x="250" y="0" clip-path="url(#clipPath2)" fill="none" width="475" rx="4" ry="4" height="275" stroke-width="3"/>
    </g>
    <g fill="rgb(255,204,0)" text-rendering="geometricPrecision" shape-rendering="geometricPrecision" transform="matrix(1,0,0,1,15,15)" stroke="rgb(255,204,0)">
      <rect x="559" width="82" height="29" y="185.5" clip-path="url(#clipPath2)" stroke="none"/>
    </g>
    <g stroke-linecap="butt" transform="matrix(1,0,0,1,15,15)" text-rendering="geometricPrecision" font-family="'Courier New'" shape-rendering="geometricPrecision" font-weight="bold" stroke-miterlimit="1.45">
      <text x="574.7959" xml:space="preserve" y="203.1934" clip-path="url(#clipPath2)" stroke="none">B:1.2.0</text>
      <rect fill="none" x="559" width="82" height="29" y="185.5" clip-path="url(#clipPath2)"/>
    </g>
    <g fill="rgb(255,204,0)" text-rendering="geometricPrecision" shape-rendering="geometricPrecision" transform="matrix(1,0,0,1,15,15)" stroke="rgb(255,204,0)">
      <rect x="434" width="82" height="29" y="185.5" clip-path="url(#clipPath2)" stroke="none"/>
    </g>
    <g stroke-linecap="butt" transform="matrix(1,0,0,1,15,15)" text-rendering="geometricPrecision" font-family="'Courier New'" shape-rendering="geometricPrecision" font-weight="bold" stroke-miterlimit="1.45">
      <text x="449.7959" xml:space="preserve" y="203.1934" clip-path="url(#clipPath2)" stroke="none">B:1.1.0</text>
      <rect fill="none" x="434" width="82" height="29" y="185.5" clip-path="url(#clipPath2)"/>
    </g>
    <g fill="rgb(255,204,0)" text-rendering="geometricPrecision" shape-rendering="geometricPrecision" transform="matrix(1,0,0,1,15,15)" stroke="rgb(255,204,0)">
      <rect x="309" width="82" height="29" y="185.5" clip-path="url(#clipPath2)" stroke="none"/>
    </g>
    <g stroke-linecap="butt" transform="matrix(1,0,0,1,15,15)" text-rendering="geometricPrecision" font-family="'Courier New'" shape-rendering="geometricPrecision" font-weight="bold" stroke-miterlimit="1.45">
      <text x="324.7959" xml:space="preserve" y="203.1934" clip-path="url(#clipPath2)" stroke="none">B:1.0.0</text>
      <rect fill="none" x="309" width="82" height="29" y="185.5" clip-path="url(#clipPath2)"/>
      <path fill="none" d="M125 414.5 L125 775 L675 775 L675 200 L649 200" clip-path="url(#clipPath2)"/>
      <path d="M641 200 L653 205 L650 200 L653 195 Z" stroke="none" clip-path="url(#clipPath2)"/>
    </g>
    <g text-rendering="geometricPrecision" stroke-miterlimit="1.45" shape-rendering="geometricPrecision" font-family="sans-serif" transform="matrix(0.0044,-1,1,0.0044,150,446.0878)" stroke-linecap="butt">
      <text x="2" xml:space="preserve" y="13.6016" clip-path="url(#clipPath3)" stroke="none">1</text>
    </g>
    <g text-rendering="geometricPrecision" stroke-miterlimit="1.45" shape-rendering="geometricPrecision" transform="matrix(1,0,0,1,15,15)" stroke-linecap="butt">
      <path fill="none" d="M125 185.473 L125 75 L475 75 L475 177.473" clip-path="url(#clipPath2)"/>
      <path d="M475 185.473 L480 173.473 L475 176.473 L470 173.473 Z" clip-path="url(#clipPath2)" stroke="none"/>
      <text x="91.2061" xml:space="preserve" y="175.9688" clip-path="url(#clipPath2)" font-family="sans-serif" stroke="none">4</text>
      <path fill="none" d="M166 200 L300.9651 200" clip-path="url(#clipPath2)"/>
      <path d="M308.9651 200 L296.9651 195 L299.9651 200 L296.9651 205 Z" clip-path="url(#clipPath2)" stroke="none"/>
    </g>
    <g text-rendering="geometricPrecision" stroke-miterlimit="1.45" shape-rendering="geometricPrecision" font-family="sans-serif" transform="matrix(0.0044,1,-1,0.0044,204.1326,193.3331)" stroke-linecap="butt">
      <text x="2" xml:space="preserve" y="13.6016" clip-path="url(#clipPath4)" stroke="none">4</text>
    </g>
    <g fill="rgb(245,245,245)" text-rendering="geometricPrecision" shape-rendering="geometricPrecision" transform="matrix(1,0,0,1,15,15)" stroke="rgb(245,245,245)">
      <rect x="250" y="300" clip-path="url(#clipPath2)" width="325" rx="4" ry="4" height="175" stroke="none"/>
      <rect x="250" y="300" clip-path="url(#clipPath2)" fill="rgb(235,235,235)" width="325" height="21.666" stroke="none"/>
    </g>
    <g font-size="15" stroke-linecap="butt" transform="matrix(1,0,0,1,15,15)" text-rendering="geometricPrecision" font-family="sans-serif" shape-rendering="geometricPrecision" stroke-miterlimit="1.45">
      <text x="507.7046" xml:space="preserve" y="316.502" clip-path="url(#clipPath2)" stroke="none">Library C</text>
      <rect x="250" y="300" clip-path="url(#clipPath2)" fill="none" width="325" stroke-dasharray="6,2" rx="4" ry="4" height="175"/>
    </g>
    <g fill="rgb(255,204,0)" text-rendering="geometricPrecision" shape-rendering="geometricPrecision" transform="matrix(1,0,0,1,15,15)" stroke="rgb(255,204,0)">
      <rect x="434" width="82" height="29" y="385.5" clip-path="url(#clipPath2)" stroke="none"/>
    </g>
    <g stroke-linecap="butt" transform="matrix(1,0,0,1,15,15)" text-rendering="geometricPrecision" font-family="'Courier New'" shape-rendering="geometricPrecision" font-weight="bold" stroke-miterlimit="1.45">
      <text x="449.7959" xml:space="preserve" y="403.1934" clip-path="url(#clipPath2)" stroke="none">C:1.2.0</text>
      <rect fill="none" x="434" width="82" height="29" y="385.5" clip-path="url(#clipPath2)"/>
    </g>
    <g fill="rgb(255,204,0)" text-rendering="geometricPrecision" shape-rendering="geometricPrecision" transform="matrix(1,0,0,1,15,15)" stroke="rgb(255,204,0)">
      <rect x="309" width="82" height="29" y="385.5" clip-path="url(#clipPath2)" stroke="none"/>
    </g>
    <g stroke-linecap="butt" transform="matrix(1,0,0,1,15,15)" text-rendering="geometricPrecision" font-family="'Courier New'" shape-rendering="geometricPrecision" font-weight="bold" stroke-miterlimit="1.45">
      <text x="324.7959" xml:space="preserve" y="403.1934" clip-path="url(#clipPath2)" stroke="none">C:1.1.0</text>
      <rect fill="none" x="309" width="82" height="29" y="385.5" clip-path="url(#clipPath2)"/>
      <path fill="none" d="M600 214.5 L600 400 L524 400" clip-path="url(#clipPath2)"/>
      <path d="M516 400 L528 405 L525 400 L528 395 Z" stroke="none" clip-path="url(#clipPath2)"/>
    </g>
    <g text-rendering="geometricPrecision" stroke-miterlimit="1.45" shape-rendering="geometricPrecision" font-family="sans-serif" transform="matrix(0.0044,-1,1,0.0044,625,333.4211)" stroke-linecap="butt">
      <text x="2" xml:space="preserve" y="13.6016" clip-path="url(#clipPath5)" stroke="none">3</text>
    </g>
    <g text-rendering="geometricPrecision" stroke-miterlimit="1.45" shape-rendering="geometricPrecision" transform="matrix(1,0,0,1,15,15)" stroke-linecap="butt">
      <path fill="none" d="M475 214.5 L475 377.4583" clip-path="url(#clipPath2)"/>
      <path d="M475 385.4583 L480 373.4583 L475 376.4583 L470 373.4583 Z" clip-path="url(#clipPath2)" stroke="none"/>
      <text x="441.2061" xml:space="preserve" y="233.1016" clip-path="url(#clipPath2)" font-family="sans-serif" stroke="none">8</text>
      <path fill="none" d="M166 400 L300.9651 400" clip-path="url(#clipPath2)"/>
      <path d="M308.9651 400 L296.9651 395 L299.9651 400 L296.9651 405 Z" clip-path="url(#clipPath2)" stroke="none"/>
    </g>
    <g text-rendering="geometricPrecision" stroke-miterlimit="1.45" shape-rendering="geometricPrecision" font-family="sans-serif" transform="matrix(0.0044,-1,1,0.0044,243.4084,436.5878)" stroke-linecap="butt">
      <text x="2" xml:space="preserve" y="13.6016" clip-path="url(#clipPath6)" stroke="none">2</text>
    </g>
    <g text-rendering="geometricPrecision" stroke-miterlimit="1.45" shape-rendering="geometricPrecision" transform="matrix(1,0,0,1,15,15)" stroke-linecap="butt">
      <path fill="none" d="M350 214.5 L350 377.4583" clip-path="url(#clipPath2)"/>
      <path d="M350 385.4583 L355 373.4583 L350 376.4583 L345 373.4583 Z" clip-path="url(#clipPath2)" stroke="none"/>
    </g>
    <g text-rendering="geometricPrecision" stroke-miterlimit="1.45" shape-rendering="geometricPrecision" font-family="sans-serif" transform="matrix(0.0044,1,-1,0.0044,393.1326,234.5)" stroke-linecap="butt">
      <text x="2" xml:space="preserve" y="13.6016" clip-path="url(#clipPath7)" stroke="none">6</text>
    </g>
    <g fill="rgb(245,245,245)" text-rendering="geometricPrecision" shape-rendering="geometricPrecision" transform="matrix(1,0,0,1,15,15)" stroke="rgb(245,245,245)">
      <rect x="375" y="500" clip-path="url(#clipPath2)" width="200" rx="4" ry="4" height="250" stroke="none"/>
      <rect x="375" y="500" clip-path="url(#clipPath2)" fill="rgb(235,235,235)" width="200" height="21.666" stroke="none"/>
    </g>
    <g font-size="15" stroke-linecap="butt" transform="matrix(1,0,0,1,15,15)" text-rendering="geometricPrecision" font-family="sans-serif" shape-rendering="geometricPrecision" stroke-miterlimit="1.45">
      <text x="506.8477" xml:space="preserve" y="516.502" clip-path="url(#clipPath2)" stroke="none">Library D</text>
      <rect x="375" y="500" clip-path="url(#clipPath2)" fill="none" width="200" stroke-dasharray="6,2" rx="4" ry="4" height="250"/>
    </g>
    <g fill="rgb(255,204,0)" text-rendering="geometricPrecision" shape-rendering="geometricPrecision" transform="matrix(1,0,0,1,15,15)" stroke="rgb(255,204,0)">
      <rect x="434" width="82" height="29" y="660.5" clip-path="url(#clipPath2)" stroke="none"/>
    </g>
    <g stroke-linecap="butt" transform="matrix(1,0,0,1,15,15)" text-rendering="geometricPrecision" font-family="'Courier New'" shape-rendering="geometricPrecision" font-weight="bold" stroke-miterlimit="1.45">
      <text x="449.7959" xml:space="preserve" y="678.1934" clip-path="url(#clipPath2)" stroke="none">D:1.1.0</text>
      <rect fill="none" x="434" width="82" height="29" y="660.5" clip-path="url(#clipPath2)"/>
    </g>
    <g fill="rgb(255,204,0)" text-rendering="geometricPrecision" shape-rendering="geometricPrecision" transform="matrix(1,0,0,1,15,15)" stroke="rgb(255,204,0)">
      <rect x="434" width="82" height="29" y="585.5" clip-path="url(#clipPath2)" stroke="none"/>
    </g>
    <g stroke-linecap="butt" transform="matrix(1,0,0,1,15,15)" text-rendering="geometricPrecision" font-family="'Courier New'" shape-rendering="geometricPrecision" font-weight="bold" stroke-miterlimit="1.45">
      <text x="449.7959" xml:space="preserve" y="603.1934" clip-path="url(#clipPath2)" stroke="none">D:1.0.0</text>
      <rect fill="none" x="434" width="82" height="29" y="585.5" clip-path="url(#clipPath2)"/>
      <path fill="none" d="M83.9668 200 L50 200 L50 675 L425.9531 675" clip-path="url(#clipPath2)"/>
      <path d="M433.9531 675 L421.9531 670 L424.9531 675 L421.9531 680 Z" stroke="none" clip-path="url(#clipPath2)"/>
      <text x="16.2061" y="204.5352" clip-path="url(#clipPath2)" font-family="sans-serif" stroke="none" font-weight="normal" xml:space="preserve">5</text>
      <path fill="none" d="M475 414.5 L475 577.4583" clip-path="url(#clipPath2)"/>
      <path d="M475 585.4583 L480 573.4583 L475 576.4583 L470 573.4583 Z" stroke="none" clip-path="url(#clipPath2)"/>
    </g>
    <g text-rendering="geometricPrecision" stroke-miterlimit="1.45" shape-rendering="geometricPrecision" font-family="sans-serif" transform="matrix(0.0044,-1,1,0.0044,461.8168,538.0318)" stroke-linecap="butt">
      <text x="2" xml:space="preserve" y="13.6016" clip-path="url(#clipPath8)" stroke="none">7</text>
    </g>
  </g>
</svg>
