<?xml version="1.0" encoding="UTF-8"?>
<!DOCTYPE svg PUBLIC "-//W3C//DTD SVG 1.1//EN" "http://www.w3.org/Graphics/SVG/1.1/DTD/svg11.dtd">
<svg version="1.1" xmlns="http://www.w3.org/2000/svg" xmlns:xlink="http://www.w3.org/1999/xlink" x="0" y="0" width="600" height="500" viewBox="0, 0, 600, 500">
  <g id="Layer_1">
    <text transform="matrix(1, 0, 0, 1, 109.602, 69)">
      <tspan x="-9.602" y="8" font-family="CourierNewPS-ItalicMT" font-size="32" fill="#000000">A</tspan>
    </text>
    <text transform="matrix(1, 0, 0, 1, 242.602, 69)">
      <tspan x="-9.602" y="8" font-family="CourierNewPS-ItalicMT" font-size="32" fill="#000000">B</tspan>
    </text>
    <text transform="matrix(1, 0, 0, 1, 375.602, 69)">
      <tspan x="-9.602" y="8" font-family="CourierNewPS-ItalicMT" font-size="32" fill="#000000">C</tspan>
    </text>
    <text transform="matrix(1, 0, 0, 1, 509.602, 69)">
      <tspan x="-9.602" y="8" font-family="CourierNewPS-ItalicMT" font-size="32" fill="#000000">D</tspan>
    </text>
    <g>
      <path d="M82.5,175.5 L138.5,175.5 C146.232,175.5 152.5,180.873 152.5,187.5 L152.5,199.5 C152.5,206.127 146.232,211.5 138.5,211.5 L82.5,211.5 C74.768,211.5 68.5,206.127 68.5,199.5 L68.5,187.5 C68.5,180.873 74.768,175.5 82.5,175.5 z" fill-opacity="0" stroke="#000000" stroke-width="2"/>
      <text transform="matrix(1, 0, 0, 1, 111.004, 194.5)">
        <tspan x="-27.004" y="4.5" font-family="CourierNewPS-ItalicMT" font-size="18" fill="#000000">2.0.0</tspan>
      </text>
    </g>
    <path d="M156.5,192.5 L372.5,275.5" fill-opacity="0" stroke="#000000" stroke-width="2"/>
    <path d="M285.5,144.5 L334.5,192.5" fill-opacity="0" stroke="#000000" stroke-width="2"/>
    <g>
      <path d="M82.5,275.5 L138.5,275.5 C146.232,275.5 152.5,280.873 152.5,287.5 L152.5,299.5 C152.5,306.127 146.232,311.5 138.5,311.5 L82.5,311.5 C74.768,311.5 68.5,306.127 68.5,299.5 L68.5,287.5 C68.5,280.873 74.768,275.5 82.5,275.5 z" fill-opacity="0" stroke="#000000" stroke-width="2"/>
      <text transform="matrix(1, 0, 0, 1, 111.004, 294.5)">
        <tspan x="-27.004" y="4.5" font-family="CourierNewPS-ItalicMT" font-size="18" fill="#000000">1.0.0</tspan>
      </text>
    </g>
    <g>
      <path d="M215.5,125.5 L271.5,125.5 C279.232,125.5 285.5,130.873 285.5,137.5 L285.5,149.5 C285.5,156.127 279.232,161.5 271.5,161.5 L215.5,161.5 C207.768,161.5 201.5,156.127 201.5,149.5 L201.5,137.5 C201.5,130.873 207.768,125.5 215.5,125.5 z" fill-opacity="0" stroke="#000000" stroke-width="2"/>
      <text transform="matrix(1, 0, 0, 1, 244.004, 144.5)">
        <tspan x="-27.004" y="4.5" font-family="CourierNewPS-ItalicMT" font-size="18" fill="#000000">1.2.0</tspan>
      </text>
    </g>
    <g>
      <path d="M215.5,225.5 L271.5,225.5 C279.232,225.5 285.5,230.873 285.5,237.5 L285.5,249.5 C285.5,256.127 279.232,261.5 271.5,261.5 L215.5,261.5 C207.768,261.5 201.5,256.127 201.5,249.5 L201.5,237.5 C201.5,230.873 207.768,225.5 215.5,225.5 z" fill-opacity="0" stroke="#000000" stroke-width="2"/>
      <text transform="matrix(1, 0, 0, 1, 244.004, 244.5)">
        <tspan x="-27.004" y="4.5" font-family="CourierNewPS-ItalicMT" font-size="18" fill="#000000">1.1.0</tspan>
      </text>
    </g>
    <g>
      <path d="M215.5,325.5 L271.5,325.5 C279.232,325.5 285.5,330.873 285.5,337.5 L285.5,349.5 C285.5,356.127 279.232,361.5 271.5,361.5 L215.5,361.5 C207.768,361.5 201.5,356.127 201.5,349.5 L201.5,337.5 C201.5,330.873 207.768,325.5 215.5,325.5 z" fill-opacity="0" stroke="#000000" stroke-width="2"/>
      <text transform="matrix(1, 0, 0, 1, 244.004, 344.5)">
        <tspan x="-27.004" y="4.5" font-family="CourierNewPS-ItalicMT" font-size="18" fill="#000000">1.0.0</tspan>
      </text>
      <path d="M156.5,300.5 L201.5,249.5" fill-opacity="0" stroke="#000000" stroke-width="2"/>
      <path d="M156.5,300.5 L201.5,337.5" fill-opacity="0" stroke="#000000" stroke-width="1"/>
    </g>
    <g>
      <path d="M348.5,175.5 L404.5,175.5 C412.232,175.5 418.5,180.873 418.5,187.5 L418.5,199.5 C418.5,206.127 412.232,211.5 404.5,211.5 L348.5,211.5 C340.768,211.5 334.5,206.127 334.5,199.5 L334.5,187.5 C334.5,180.873 340.768,175.5 348.5,175.5 z" fill-opacity="0" stroke="#000000" stroke-width="2"/>
      <text transform="matrix(1, 0, 0, 1, 377.004, 194.5)">
        <tspan x="-27.004" y="4.5" font-family="CourierNewPS-ItalicMT" font-size="18" fill="#000000">1.2.0</tspan>
      </text>
    </g>
    <g>
      <path d="M348.5,275.5 L404.5,275.5 C412.232,275.5 418.5,280.873 418.5,287.5 L418.5,299.5 C418.5,306.127 412.232,311.5 404.5,311.5 L348.5,311.5 C340.768,311.5 334.5,306.127 334.5,299.5 L334.5,287.5 C334.5,280.873 340.768,275.5 348.5,275.5 z" fill-opacity="0" stroke="#000000" stroke-width="2"/>
      <text transform="matrix(1, 0, 0, 1, 377.004, 294.5)">
        <tspan x="-27.004" y="4.5" font-family="CourierNewPS-ItalicMT" font-size="18" fill="#000000">1.1.0</tspan>
      </text>
    </g>
    <g>
      <path d="M474.5,225.5 L530.5,225.5 C538.232,225.5 544.5,230.873 544.5,237.5 L544.5,249.5 C544.5,256.127 538.232,261.5 530.5,261.5 L474.5,261.5 C466.768,261.5 460.5,256.127 460.5,249.5 L460.5,237.5 C460.5,230.873 466.768,225.5 474.5,225.5 z" fill-opacity="0" stroke="#000000" stroke-width="2"/>
      <text transform="matrix(1, 0, 0, 1, 503.004, 244.5)">
        <tspan x="-27.004" y="4.5" font-family="CourierNewPS-ItalicMT" font-size="18" fill="#000000">1.1.0</tspan>
      </text>
    </g>
    <g>
      <path d="M474.5,325.5 L530.5,325.5 C538.232,325.5 544.5,330.873 544.5,337.5 L544.5,349.5 C544.5,356.127 538.232,361.5 530.5,361.5 L474.5,361.5 C466.768,361.5 460.5,356.127 460.5,349.5 L460.5,337.5 C460.5,330.873 466.768,325.5 474.5,325.5 z" fill-opacity="0" stroke="#000000" stroke-width="2"/>
      <text transform="matrix(1, 0, 0, 1, 503.004, 344.5)">
        <tspan x="-27.004" y="4.5" font-family="CourierNewPS-ItalicMT" font-size="18" fill="#000000">1.0.0</tspan>
      </text>
      <path d="M156.5,300.5 L456.5,240.5" fill-opacity="0" stroke="#000000" stroke-width="1"/>
      <path d="M285.5,349.5 L334.5,299.5" fill-opacity="0" stroke="#000000" stroke-width="1"/>
      <path d="M418.5,192.5 L468.5,324.5" fill-opacity="0" stroke="#000000" stroke-width="1"/>
      <path d="M285.5,237.5 L334.5,204.5" fill-opacity="0" stroke="#000000" stroke-width="1"/>
    </g>
    <path d="M156.5,192.5 L201.5,144.5" fill-opacity="0" stroke="#000000" stroke-width="2"/>
  </g>
</svg>
