<?xml version="1.0" encoding="UTF-8"?>
<!DOCTYPE svg PUBLIC "-//W3C//DTD SVG 1.1//EN" "http://www.w3.org/Graphics/SVG/1.1/DTD/svg11.dtd">
<svg version="1.1" xmlns="http://www.w3.org/2000/svg" xmlns:xlink="http://www.w3.org/1999/xlink" x="0px" y="0px" width="679" height="459" viewBox="0, 0, 679, 459">
  <g id="Layer 1">
    <path d="M150.828,268.834 L165.57,268.834 L165.57,336.65 L150.828,336.65 z" fill="#000000"/>
    <path d="M260.903,336.65 L260.903,292.421 C260.903,285.12 257.674,280.206 249.671,280.206 C243.072,280.206 236.894,284.7 233.946,289.192 L233.946,336.649 L219.203,336.649 L219.203,292.42 C219.203,285.119 216.114,280.205 208.111,280.205 C201.512,280.205 195.475,284.838 192.386,289.191 L192.386,336.648 L177.644,336.648 L177.644,268.832 L192.386,268.832 L192.386,277.959 C195.335,273.887 204.18,267.148 214.57,267.148 C224.679,267.148 230.857,272.203 233.103,279.503 C236.894,273.466 245.88,267.148 256.129,267.148 C268.484,267.148 275.645,273.886 275.645,287.646 L275.645,336.648 L260.903,336.648 z" fill="#000000"/>
    <path d="M302.464,327.242 L302.464,362.484 L287.722,362.484 L287.722,268.834 L302.464,268.834 L302.464,278.102 C307.519,271.362 315.381,267.151 324.227,267.151 C341.778,267.151 354.274,280.348 354.274,302.672 C354.274,324.996 341.778,338.334 324.227,338.334 C315.662,338.334 308.08,334.402 302.464,327.242 z M339.11,302.672 C339.11,289.475 331.527,280.207 319.874,280.207 C312.994,280.207 305.833,284.139 302.464,289.193 L302.464,316.009 C305.693,321.064 312.994,325.277 319.874,325.277 C331.527,325.277 339.11,315.869 339.11,302.672 z" fill="#000000"/>
    <path d="M403.556,336.65 L403.556,329.209 C398.501,335.105 390.498,338.334 381.512,338.334 C370.56,338.334 358.065,330.752 358.065,315.869 C358.065,300.144 370.42,293.685 381.512,293.685 C390.779,293.685 398.501,296.634 403.556,302.39 L403.556,292.281 C403.556,284.42 396.956,279.646 387.69,279.646 C380.108,279.646 373.369,282.453 367.612,288.351 L361.434,278.101 C369.297,270.519 379.125,267.15 389.937,267.15 C405.1,267.15 418.298,273.468 418.298,291.58 L418.298,336.65 L403.556,336.65 z M403.556,321.205 L403.556,310.814 C400.045,306.181 393.728,303.794 387.41,303.794 C379.126,303.794 372.807,308.708 372.807,316.009 C372.807,323.45 379.125,328.224 387.41,328.224 C393.728,328.225 400.045,325.838 403.556,321.205 z" fill="#000000"/>
    <path d="M426.3,302.672 C426.3,282.174 440.761,267.151 461.26,267.151 C474.599,267.151 482.461,272.766 487.235,279.225 L477.547,288.071 C473.756,282.735 468.561,280.208 461.962,280.208 C449.747,280.208 441.463,289.476 441.463,302.673 C441.463,315.87 449.747,325.278 461.962,325.278 C468.561,325.278 473.756,322.469 477.547,317.133 L487.235,326.26 C482.462,332.578 474.599,338.334 461.26,338.334 C440.761,338.334 426.3,323.17 426.3,302.672 z" fill="#000000"/>
    <path d="M499.578,320.783 L499.578,281.611 L488.347,281.611 L488.347,268.834 L499.578,268.834 L499.578,250.302 L514.321,250.302 L514.321,268.834 L528.08,268.834 L528.08,281.611 L514.321,281.611 L514.321,317.132 C514.321,321.767 516.567,325.277 520.779,325.277 C523.588,325.277 526.115,324.013 527.238,322.75 L530.748,333.982 C528.08,336.369 523.727,338.334 516.988,338.334 C505.476,338.334 499.578,332.156 499.578,320.783 z" fill="#000000"/>
    <path d="M167.553,257.487 C167.719,262.651 163.667,266.977 158.501,267.143 C153.335,267.307 149.012,263.254 148.846,258.088 C148.679,252.924 152.732,248.6 157.899,248.435 C163.065,248.268 167.386,252.321 167.553,257.487 z" fill="#E00516"/>
    <g>
      <path d="M473.498,217.313 C473.498,232.654 461.062,245.09 445.721,245.09 C430.38,245.09 417.944,232.654 417.944,217.313 C417.944,201.972 430.38,189.536 445.721,189.536 C461.062,189.536 473.498,201.972 473.498,217.313 z" fill="#000000"/>
      <path d="M447.013,203.102 C447.013,203.815 446.435,204.394 445.721,204.394 L445.721,204.394 C445.007,204.394 444.43,203.815 444.43,203.102 L444.43,97.808 C444.43,97.095 445.007,96.516 445.721,96.516 L445.721,96.516 C446.435,96.516 447.013,97.094 447.013,97.808 L447.013,203.102 z" fill="#000000"/>
    </g>
    <g>
      <path d="M419.192,217.313 C419.192,232.654 406.756,245.09 391.415,245.09 C376.074,245.09 363.638,232.654 363.638,217.313 C363.638,201.972 376.074,189.536 391.415,189.536 C406.756,189.536 419.192,201.972 419.192,217.313 z" fill="#000000"/>
      <path d="M392.706,203.102 C392.706,203.815 392.129,204.394 391.414,204.394 L391.414,204.394 C390.7,204.394 390.122,203.815 390.122,203.102 L390.122,97.808 C390.122,97.095 390.7,96.516 391.414,96.516 L391.414,96.516 C392.129,96.516 392.706,97.094 392.706,97.808 L392.706,203.102 z" fill="#000000"/>
    </g>
    <g>
      <path d="M364.885,217.313 C364.885,232.654 352.449,245.09 337.108,245.09 C321.767,245.09 309.331,232.654 309.331,217.313 C309.331,201.972 321.767,189.536 337.108,189.536 C352.449,189.536 364.885,201.972 364.885,217.313 z" fill="#000000"/>
      <path d="M338.399,203.102 C338.399,203.815 337.821,204.394 337.107,204.394 L337.107,204.394 C336.393,204.394 335.815,203.815 335.815,203.102 L335.815,97.808 C335.815,97.095 336.393,96.516 337.107,96.516 L337.107,96.516 C337.82,96.516 338.399,97.094 338.399,97.808 L338.399,203.102 z" fill="#000000"/>
    </g>
    <g>
      <path d="M310.578,217.313 C310.578,232.654 298.142,245.09 282.801,245.09 C267.46,245.09 255.024,232.654 255.024,217.313 C255.024,201.972 267.46,189.536 282.801,189.536 C298.142,189.536 310.578,201.972 310.578,217.313 z" fill="#000000"/>
      <path d="M284.092,203.102 C284.092,203.815 283.514,204.394 282.8,204.394 L282.8,204.394 C282.086,204.394 281.508,203.815 281.508,203.102 L281.508,97.808 C281.508,97.095 282.086,96.516 282.8,96.516 L282.8,96.516 C283.514,96.516 284.092,97.094 284.092,97.808 L284.092,203.102 z" fill="#000000"/>
    </g>
    <path d="M213.644,196.211 C213.447,196.874 212.952,197.158 212.536,196.845 L212.536,196.845 C212.119,196.531 211.942,195.742 212.138,195.079 L241.11,97.277 C241.306,96.614 241.803,96.331 242.218,96.643 L242.218,96.643 C242.635,96.956 242.812,97.746 242.616,98.409 L213.644,196.211 z" fill="#000000"/>
    <path d="M235.061,208.532 C235.061,223.873 222.625,236.309 207.284,236.309 C191.943,236.309 179.507,223.873 179.507,208.532 C179.507,193.191 191.943,180.755 207.284,180.755 C222.625,180.755 235.061,193.191 235.061,208.532 z" fill="#E00516"/>
    <path d="M227.495,202.3 C227.495,208.746 222.27,213.971 215.824,213.971 C209.378,213.971 204.153,208.746 204.153,202.3 C204.153,195.854 209.378,190.629 215.824,190.629 C222.27,190.629 227.495,195.854 227.495,202.3 z" fill="#FFFFFF" opacity="0.25"/>
    <path d="M299.987,208.643 C299.987,215.089 294.762,220.314 288.316,220.314 C281.87,220.314 276.645,215.089 276.645,208.643 C276.645,202.197 281.87,196.972 288.316,196.972 C294.762,196.972 299.987,202.197 299.987,208.643 z" fill="#FFFFFF" opacity="0.25"/>
    <path d="M354.274,208.643 C354.274,215.089 349.049,220.314 342.603,220.314 C336.157,220.314 330.932,215.089 330.932,208.643 C330.932,202.197 336.157,196.972 342.603,196.972 C349.049,196.972 354.274,202.197 354.274,208.643 z" fill="#FFFFFF" opacity="0.25"/>
    <path d="M409.557,208.643 C409.557,215.089 404.331,220.314 397.886,220.314 C391.44,220.314 386.215,215.089 386.215,208.643 C386.215,202.197 391.44,196.972 397.886,196.972 C404.331,196.972 409.557,202.197 409.557,208.643 z" fill="#FFFFFF" opacity="0.25"/>
    <path d="M463.273,208.643 C463.273,215.089 458.048,220.314 451.602,220.314 C445.157,220.314 439.931,215.089 439.931,208.643 C439.931,202.197 445.157,196.972 451.602,196.972 C458.048,196.972 463.273,202.197 463.273,208.643 z" fill="#FFFFFF" opacity="0.25"/>
  </g>
  <defs/>
</svg>
