<?xml version="1.0" encoding="utf-8"?>
<!-- Generator: Adobe Illustrator 16.0.0, SVG Export Plug-In . SVG Version: 6.00 Build 0)  -->
<!DOCTYPE svg PUBLIC "-//W3C//DTD SVG 1.1//EN" "http://www.w3.org/Graphics/SVG/1.1/DTD/svg11.dtd">
<svg version="1.1" id="Layer_1" xmlns="http://www.w3.org/2000/svg" xmlns:xlink="http://www.w3.org/1999/xlink" x="0px" y="0px"
	 width="679px" height="459px" viewBox="0 0 679 459" enable-background="new 0 0 679 459" xml:space="preserve">
<g>
	<g>
		<path fill="#414042" d="M327.86,228.289l-3.646-0.253l1.568-9.677l-13.927-94.031l0.594-0.088l13.65,92.164l14.961-92.29
			l0.592,0.096l-15.263,94.153L327.86,228.289z M324.912,227.483l2.245,0.155l-1.084-7.32L324.912,227.483z"/>
	</g>
	<g>
		<path fill="#414042" d="M351.186,232.215l1.456-9.025l-17.099-98.854l0.591-0.103l16.802,97.136l15.698-97.254l0.592,0.096
			l-15.976,98.976l1.469,8.49L351.186,232.215z M352.956,225.007l-1.048,6.491l2.115-0.322L352.956,225.007z"/>
	</g>
	<g>
		<path fill="#414042" d="M373.487,232.215l1.36-8.43l-19.79-99.442l0.588-0.117l19.476,97.862l15.814-97.974l0.592,0.096
			l-16.07,99.564l1.572,7.9L373.487,232.215z M375.183,225.472l-0.973,6.026l2.108-0.321L375.183,225.472z"/>
	</g>
	<g>
		<path fill="#414042" d="M392.184,232.216l1.322-7.86l-22.062-100.007l0.586-0.129l21.741,98.556l16.605-98.663l0.592,0.1
			L394.117,224.34l1.618,7.334L392.184,232.216z M393.852,225.92l-0.939,5.577l2.099-0.319L393.852,225.92z"/>
	</g>
	<g>
		<path fill="#414042" d="M407.959,232.216l1.263-7.508l-24.153-100.354l0.584-0.141l23.823,98.985l16.676-99.087l0.592,0.1
			l-16.909,100.475l1.682,6.986L407.959,232.216z M409.58,226.195l-0.893,5.302l2.092-0.318L409.58,226.195z"/>
	</g>
	<g>
		<path fill="#414042" d="M421.61,232.216l1.229-7.31l-25.437-100.549l0.582-0.147l25.102,99.227l16.716-99.324l0.592,0.1
			l-16.941,100.669l1.718,6.792L421.61,232.216z M423.205,226.351l-0.866,5.146l2.088-0.318L423.205,226.351z"/>
	</g>
	<g>
		<radialGradient id="SVGID_1_" cx="424.3711" cy="239.9541" r="12.1891" gradientUnits="userSpaceOnUse">
			<stop  offset="0.8737" style="stop-color:#000000"/>
			<stop  offset="1" style="stop-color:#58595B"/>
		</radialGradient>
		<circle fill="url(#SVGID_1_)" cx="424.371" cy="239.955" r="12.685"/>
		<g>
			<radialGradient id="SVGID_2_" cx="423.9629" cy="238.9307" r="11.2988" gradientUnits="userSpaceOnUse">
				<stop  offset="0.8737" style="stop-color:#000111"/>
				<stop  offset="1" style="stop-color:#414042"/>
			</radialGradient>
			<path fill="url(#SVGID_2_)" d="M434.335,234.276c0-0.851-0.093-1.68-0.26-2.485c-2.323-2.765-5.811-4.521-9.705-4.521
				c-7.007,0-12.685,5.679-12.685,12.686c0,2.555,0.759,4.933,2.059,6.924c1.706,0.598,3.56,0.93,5.497,0.93
				C427.577,247.809,434.335,241.749,434.335,234.276z"/>
		</g>
		<radialGradient id="SVGID_3_" cx="424.2129" cy="238.7412" r="10.4492" gradientUnits="userSpaceOnUse">
			<stop  offset="0.1414" style="stop-color:#414042"/>
			<stop  offset="1" style="stop-color:#414042;stop-opacity:0"/>
		</radialGradient>
		<circle fill="url(#SVGID_3_)" cx="424.212" cy="238.742" r="10.45"/>
		<path opacity="0.1" fill="#FFFFFF" d="M416.213,235.002c0,1.096,1.102,3.219,8.157,3.219c7.057,0,7.908-2.158,7.908-3.36
			c0-1.175-0.671-2.384-0.7-2.44c-1.696-2.181-4.294-3.579-7.208-3.579c-3.192,0-6.009,1.679-7.674,4.23
			C416.69,233.082,416.213,233.911,416.213,235.002z"/>
		<ellipse opacity="0.2" fill="#FFFFFF" cx="417.79" cy="234.103" rx="0.929" ry="0.864"/>
	</g>
	<g>
		<radialGradient id="SVGID_4_" cx="409.3203" cy="241.1367" r="13.3255" gradientUnits="userSpaceOnUse">
			<stop  offset="0.8737" style="stop-color:#000000"/>
			<stop  offset="1" style="stop-color:#58595B"/>
		</radialGradient>
		<circle fill="url(#SVGID_4_)" cx="409.321" cy="241.137" r="13.868"/>
		<g>
			<radialGradient id="SVGID_5_" cx="408.876" cy="240.0176" r="12.3512" gradientUnits="userSpaceOnUse">
				<stop  offset="0.8737" style="stop-color:#000111"/>
				<stop  offset="1" style="stop-color:#414042"/>
			</radialGradient>
			<path fill="url(#SVGID_5_)" d="M420.214,234.93c0-0.93-0.101-1.835-0.281-2.718c-2.543-3.021-6.355-4.942-10.611-4.942
				c-7.66,0-13.868,6.208-13.868,13.867c0,2.793,0.832,5.393,2.253,7.57c1.863,0.653,3.889,1.016,6.009,1.016
				C412.827,249.723,420.214,243.101,420.214,234.93z"/>
		</g>
		<radialGradient id="SVGID_6_" cx="409.1504" cy="239.8105" r="11.4233" gradientUnits="userSpaceOnUse">
			<stop  offset="0.1414" style="stop-color:#414042"/>
			<stop  offset="1" style="stop-color:#414042;stop-opacity:0"/>
		</radialGradient>
		<circle fill="url(#SVGID_6_)" cx="409.15" cy="239.811" r="11.423"/>
		<path opacity="0.1" fill="#FFFFFF" d="M400.404,235.723c0,1.197,1.202,3.52,8.917,3.52c7.714,0,8.644-2.359,8.644-3.674
			c0-1.286-0.73-2.606-0.766-2.668c-1.854-2.385-4.694-3.912-7.878-3.912c-3.492,0-6.57,1.834-8.392,4.624
			C400.928,233.624,400.404,234.529,400.404,235.723z"/>
		<ellipse opacity="0.2" fill="#FFFFFF" cx="402.125" cy="234.74" rx="1.014" ry="0.945"/>
	</g>
	<g>
		<radialGradient id="SVGID_7_" cx="393.1338" cy="242.1719" r="14.6229" gradientUnits="userSpaceOnUse">
			<stop  offset="0.8737" style="stop-color:#000000"/>
			<stop  offset="1" style="stop-color:#58595B"/>
		</radialGradient>
		<circle fill="url(#SVGID_7_)" cx="393.134" cy="242.173" r="15.218"/>
		<g>
			<radialGradient id="SVGID_8_" cx="392.6455" cy="240.9453" r="13.5555" gradientUnits="userSpaceOnUse">
				<stop  offset="0.8737" style="stop-color:#000111"/>
				<stop  offset="1" style="stop-color:#414042"/>
			</radialGradient>
			<path fill="url(#SVGID_8_)" d="M405.09,235.359c0-1.018-0.112-2.013-0.313-2.98c-2.788-3.316-6.97-5.425-11.645-5.425
				c-8.402,0-15.216,6.813-15.216,15.219c0,3.064,0.91,5.917,2.471,8.307c2.045,0.717,4.266,1.116,6.595,1.116
				C396.981,251.596,405.09,244.327,405.09,235.359z"/>
		</g>
		<radialGradient id="SVGID_9_" cx="392.9473" cy="240.7168" r="12.5361" gradientUnits="userSpaceOnUse">
			<stop  offset="0.1414" style="stop-color:#414042"/>
			<stop  offset="1" style="stop-color:#414042;stop-opacity:0"/>
		</radialGradient>
		<circle fill="url(#SVGID_9_)" cx="392.947" cy="240.719" r="12.538"/>
		<path opacity="0.1" fill="#FFFFFF" d="M383.349,236.229c0,1.315,1.316,3.862,9.783,3.862c8.469,0,9.489-2.589,9.489-4.031
			c0-1.41-0.805-2.858-0.842-2.928c-2.034-2.617-5.149-4.292-8.647-4.292c-3.828,0-7.208,2.013-9.204,5.073
			C383.922,233.927,383.349,234.921,383.349,236.229z"/>
		<ellipse opacity="0.2" fill="#FFFFFF" cx="385.237" cy="235.152" rx="1.114" ry="1.035"/>
	</g>
	<g>
		<radialGradient id="SVGID_10_" cx="375.042" cy="241.998" r="15.5172" gradientUnits="userSpaceOnUse">
			<stop  offset="0.8737" style="stop-color:#000000"/>
			<stop  offset="1" style="stop-color:#58595B"/>
		</radialGradient>
		<circle fill="url(#SVGID_10_)" cx="375.042" cy="241.998" r="16.148"/>
		<g>
			<radialGradient id="SVGID_11_" cx="374.5234" cy="240.6963" r="14.3837" gradientUnits="userSpaceOnUse">
				<stop  offset="0.8737" style="stop-color:#000111"/>
				<stop  offset="1" style="stop-color:#414042"/>
			</radialGradient>
			<path fill="url(#SVGID_11_)" d="M387.728,234.769c0-1.08-0.115-2.136-0.328-3.161c-2.963-3.52-7.397-5.758-12.356-5.758
				c-8.921,0-16.149,7.23-16.149,16.148c0,3.254,0.966,6.281,2.62,8.815c2.171,0.763,4.528,1.185,6.999,1.185
				C379.126,251.998,387.728,244.285,387.728,234.769z"/>
		</g>
		<radialGradient id="SVGID_12_" cx="374.8418" cy="240.4541" r="13.3042" gradientUnits="userSpaceOnUse">
			<stop  offset="0.1414" style="stop-color:#414042"/>
			<stop  offset="1" style="stop-color:#414042;stop-opacity:0"/>
		</radialGradient>
		<circle fill="url(#SVGID_12_)" cx="374.842" cy="240.455" r="13.305"/>
		<path opacity="0.1" fill="#FFFFFF" d="M364.658,235.691c0,1.396,1.398,4.102,10.385,4.102c8.985,0,10.066-2.749,10.066-4.281
			c0-1.495-0.851-3.031-0.891-3.104c-2.162-2.777-5.468-4.556-9.176-4.556c-4.068,0-7.651,2.136-9.771,5.383
			C365.266,233.249,364.658,234.305,364.658,235.691z"/>
		<ellipse opacity="0.2" fill="#FFFFFF" cx="366.664" cy="234.55" rx="1.182" ry="1.099"/>
	</g>
	<g>
		<radialGradient id="SVGID_13_" cx="352.8281" cy="243.1016" r="16.579" gradientUnits="userSpaceOnUse">
			<stop  offset="0.8737" style="stop-color:#000000"/>
			<stop  offset="1" style="stop-color:#58595B"/>
		</radialGradient>
		<circle fill="url(#SVGID_13_)" cx="352.828" cy="243.103" r="17.253"/>
		<g>
			<radialGradient id="SVGID_14_" cx="352.2744" cy="241.7119" r="15.3684" gradientUnits="userSpaceOnUse">
				<stop  offset="0.8737" style="stop-color:#000111"/>
				<stop  offset="1" style="stop-color:#414042"/>
			</radialGradient>
			<path fill="url(#SVGID_14_)" d="M366.382,235.38c0-1.155-0.124-2.284-0.352-3.378c-3.164-3.762-7.904-6.152-13.203-6.152
				c-9.527,0-17.252,7.726-17.252,17.253c0,3.475,1.032,6.71,2.801,9.419c2.317,0.812,4.838,1.267,7.476,1.267
				C357.19,253.788,366.382,245.547,366.382,235.38z"/>
		</g>
		<radialGradient id="SVGID_15_" cx="352.6152" cy="241.4531" r="14.2134" gradientUnits="userSpaceOnUse">
			<stop  offset="0.1414" style="stop-color:#414042"/>
			<stop  offset="1" style="stop-color:#414042;stop-opacity:0"/>
		</radialGradient>
		<circle fill="url(#SVGID_15_)" cx="352.615" cy="241.453" r="14.214"/>
		<path opacity="0.1" fill="#FFFFFF" d="M341.736,236.366c0,1.491,1.49,4.38,11.091,4.38c9.603,0,10.756-2.938,10.756-4.572
			c0-1.6-0.909-3.241-0.953-3.318c-2.308-2.967-5.839-4.867-9.803-4.867c-4.344,0-8.175,2.282-10.437,5.752
			C342.383,233.755,341.736,234.883,341.736,236.366z"/>
		<ellipse opacity="0.2" fill="#FFFFFF" cx="343.876" cy="235.146" rx="1.263" ry="1.173"/>
	</g>
	<g>
		<radialGradient id="SVGID_16_" cx="325.8213" cy="245.1885" r="19.0039" gradientUnits="userSpaceOnUse">
			<stop  offset="0.8737" style="stop-color:#000000"/>
			<stop  offset="1" style="stop-color:#58595B"/>
		</radialGradient>
		<circle fill="url(#SVGID_16_)" cx="325.821" cy="245.189" r="19.776"/>
		<g>
			<radialGradient id="SVGID_17_" cx="325.1865" cy="243.5947" r="17.6159" gradientUnits="userSpaceOnUse">
				<stop  offset="0.8737" style="stop-color:#000111"/>
				<stop  offset="1" style="stop-color:#414042"/>
			</radialGradient>
			<path fill="url(#SVGID_17_)" d="M341.357,236.336c0-1.322-0.143-2.617-0.403-3.873c-3.626-4.311-9.059-7.051-15.133-7.051
				c-10.922,0-19.776,8.854-19.776,19.777c0,3.984,1.182,7.691,3.21,10.796c2.656,0.933,5.546,1.451,8.57,1.451
				C330.822,257.437,341.357,247.99,341.357,236.336z"/>
		</g>
		<radialGradient id="SVGID_18_" cx="325.5771" cy="243.2988" r="16.2925" gradientUnits="userSpaceOnUse">
			<stop  offset="0.1414" style="stop-color:#414042"/>
			<stop  offset="1" style="stop-color:#414042;stop-opacity:0"/>
		</radialGradient>
		<circle fill="url(#SVGID_18_)" cx="325.577" cy="243.298" r="16.293"/>
		<path opacity="0.1" fill="#FFFFFF" d="M313.105,237.467c0,1.71,1.71,5.021,12.716,5.021s12.329-3.366,12.329-5.24
			c0-1.834-1.042-3.716-1.091-3.805c-2.646-3.401-6.696-5.579-11.238-5.579c-4.979,0-9.37,2.615-11.965,6.595
			C313.849,234.474,313.105,235.767,313.105,237.467z"/>
		<ellipse opacity="0.2" fill="#FFFFFF" cx="315.561" cy="236.066" rx="1.448" ry="1.345"/>
	</g>
	
		<radialGradient id="SVGID_19_" cx="310.8848" cy="576.8574" r="12.332" gradientTransform="matrix(1.5078 0 0 0.1493 -144.1084 184.0225)" gradientUnits="userSpaceOnUse">
		<stop  offset="0" style="stop-color:#000000;stop-opacity:0.3"/>
		<stop  offset="1" style="stop-color:#000000;stop-opacity:0"/>
	</radialGradient>
	<ellipse fill="url(#SVGID_19_)" cx="324.643" cy="270.147" rx="18.598" ry="1.841"/>
	
		<radialGradient id="SVGID_20_" cx="329.7837" cy="552.1914" r="11.5198" gradientTransform="matrix(1.5078 0 0 0.1493 -144.1084 184.0225)" gradientUnits="userSpaceOnUse">
		<stop  offset="0" style="stop-color:#000000;stop-opacity:0.3"/>
		<stop  offset="1" style="stop-color:#000000;stop-opacity:0"/>
	</radialGradient>
	<ellipse fill="url(#SVGID_20_)" cx="353.139" cy="266.465" rx="17.37" ry="1.72"/>
	
		<radialGradient id="SVGID_21_" cx="345.1211" cy="529.1582" r="10.0522" gradientTransform="matrix(1.5078 0 0 0.1493 -144.1084 184.0225)" gradientUnits="userSpaceOnUse">
		<stop  offset="0" style="stop-color:#000000;stop-opacity:0.3"/>
		<stop  offset="1" style="stop-color:#000000;stop-opacity:0"/>
	</radialGradient>
	<ellipse fill="url(#SVGID_21_)" cx="376.265" cy="263.026" rx="15.162" ry="1.5"/>
	
		<radialGradient id="SVGID_22_" cx="356.1836" cy="511.2676" r="8.3027" gradientTransform="matrix(1.5078 0 0 0.1493 -144.1084 184.0225)" gradientUnits="userSpaceOnUse">
		<stop  offset="0" style="stop-color:#000000;stop-opacity:0.3"/>
		<stop  offset="1" style="stop-color:#000000;stop-opacity:0"/>
	</radialGradient>
	<ellipse fill="url(#SVGID_22_)" cx="392.945" cy="260.354" rx="12.519" ry="1.24"/>
	
		<radialGradient id="SVGID_23_" cx="366.9316" cy="496.4727" r="7.082" gradientTransform="matrix(1.5078 0 0 0.1493 -144.1084 184.0225)" gradientUnits="userSpaceOnUse">
		<stop  offset="0" style="stop-color:#000000;stop-opacity:0.3"/>
		<stop  offset="1" style="stop-color:#000000;stop-opacity:0"/>
	</radialGradient>
	<ellipse fill="url(#SVGID_23_)" cx="409.15" cy="258.146" rx="10.679" ry="1.058"/>
	
		<radialGradient id="SVGID_24_" cx="377.0254" cy="482.4922" r="6.5557" gradientTransform="matrix(1.5078 0 0 0.1493 -144.1084 184.0225)" gradientUnits="userSpaceOnUse">
		<stop  offset="0" style="stop-color:#000000;stop-opacity:0.3"/>
		<stop  offset="1" style="stop-color:#000000;stop-opacity:0"/>
	</radialGradient>
	<ellipse fill="url(#SVGID_24_)" cx="424.371" cy="256.06" rx="9.886" ry="0.978"/>
	<g>
		<path fill="#414042" d="M272.503,220.067h-4.278l7.161-14.604l19.478-81.25l0.583,0.14l-18.854,78.649l38.727-78.974l0.539,0.265
			l-39.904,81.375L272.503,220.067z M269.188,219.468h2.842l2.718-11.338L269.188,219.468z"/>
	</g>
	<g>
		<radialGradient id="SVGID_25_" cx="262.7881" cy="236.3184" r="23.2381" gradientUnits="userSpaceOnUse">
			<stop  offset="0.8737" style="stop-color:#971E2D"/>
			<stop  offset="1" style="stop-color:#BE1E2D"/>
		</radialGradient>
		<circle fill="url(#SVGID_25_)" cx="262.788" cy="236.32" r="24.183"/>
		<g>
			<radialGradient id="SVGID_26_" cx="262.0122" cy="234.3691" r="21.5409" gradientUnits="userSpaceOnUse">
				<stop  offset="0.8737" style="stop-color:#8E1E2D"/>
				<stop  offset="1" style="stop-color:#BE1E2D"/>
			</radialGradient>
			<path fill="url(#SVGID_26_)" d="M281.786,225.493c0-1.618-0.174-3.201-0.493-4.736c-4.435-5.27-11.078-8.621-18.505-8.621
				c-13.355,0-24.183,10.828-24.183,24.185c0,4.87,1.445,9.404,3.925,13.199c3.249,1.141,6.782,1.775,10.479,1.775
				C268.902,251.295,281.786,239.743,281.786,225.493z"/>
		</g>
		<radialGradient id="SVGID_27_" cx="262.4888" cy="234.0078" r="19.9231" gradientUnits="userSpaceOnUse">
			<stop  offset="0.1414" style="stop-color:#BE1E2D"/>
			<stop  offset="1" style="stop-color:#BE1E2D;stop-opacity:0"/>
		</radialGradient>
		<circle fill="url(#SVGID_27_)" cx="262.489" cy="234.008" r="19.923"/>
		<path opacity="0.1" fill="#FFFFFF" d="M247.239,226.875c0,2.092,2.092,6.14,15.549,6.14s15.075-4.116,15.075-6.408
			c0-2.242-1.274-4.542-1.335-4.651c-3.235-4.159-8.186-6.823-13.74-6.823c-6.088,0-11.457,3.199-14.63,8.064
			C248.147,223.217,247.239,224.797,247.239,226.875z"/>
		<ellipse opacity="0.2" fill="#FFFFFF" cx="250.241" cy="225.164" rx="1.771" ry="1.644"/>
	</g>
	<g>
		<linearGradient id="SVGID_28_" gradientUnits="userSpaceOnUse" x1="249.7319" y1="273.7559" x2="249.7319" y2="282.0258">
			<stop  offset="0" style="stop-color:#971E2D"/>
			<stop  offset="1" style="stop-color:#BE1E2D"/>
		</linearGradient>
		<path fill="url(#SVGID_28_)" d="M244.965,279.41v-5.557c0-1.093,0.505-1.641,1.516-1.641h6.629c0.925,0,1.39,0.548,1.39,1.641
			v5.557c0,0.969-0.465,1.452-1.39,1.452h-6.629c-0.464,0-0.833-0.127-1.105-0.378C245.102,280.231,244.965,279.874,244.965,279.41z
			"/>
		<linearGradient id="SVGID_29_" gradientUnits="userSpaceOnUse" x1="249.6997" y1="290.3799" x2="249.6997" y2="322.4342">
			<stop  offset="0" style="stop-color:#000000"/>
			<stop  offset="1" style="stop-color:#414042"/>
		</linearGradient>
		<rect x="245.28" y="284.398" fill="url(#SVGID_29_)" width="8.839" height="33.525"/>
		<linearGradient id="SVGID_30_" gradientUnits="userSpaceOnUse" x1="284.8037" y1="280.3682" x2="284.8037" y2="324.0747">
			<stop  offset="0" style="stop-color:#000000"/>
			<stop  offset="1" style="stop-color:#414042"/>
		</linearGradient>
		<path fill="url(#SVGID_30_)" d="M280.258,295.573c0-3.03-1.243-4.546-3.726-4.546c-1.684,0-3.073,0.211-4.166,0.631
			c-1.097,0.422-2.337,1.159-3.726,2.211v24.055h-8.839v-33.525h7.07l1.769,3.599c0.125-0.084,0.547-0.378,1.263-0.884
			c0.715-0.505,1.409-0.969,2.083-1.389c0.673-0.421,1.65-0.831,2.937-1.23c1.283-0.4,2.661-0.603,4.135-0.603
			c4.335,0,7.239,1.453,8.713,4.358c3.957-2.905,7.977-4.358,12.06-4.358c6.65,0,9.976,3.937,9.976,11.809v22.224h-8.839v-22.351
			c0-2.273-0.717-3.703-2.147-4.292c-0.463-0.169-0.99-0.254-1.578-0.254c-3.368,0-6.104,0.884-8.208,2.651l0.063,1.958v22.287
			h-8.839V295.573z"/>
		<linearGradient id="SVGID_31_" gradientUnits="userSpaceOnUse" x1="329.9771" y1="280.3682" x2="329.9771" y2="324.073">
			<stop  offset="0" style="stop-color:#000000"/>
			<stop  offset="1" style="stop-color:#414042"/>
		</linearGradient>
		<path fill="url(#SVGID_31_)" d="M328.463,285.155c1.872-0.757,3.767-1.137,5.682-1.137c1.916,0,3.588,0.401,5.02,1.2
			c1.43,0.801,2.566,1.979,3.409,3.536c1.557,2.947,2.336,7.03,2.336,12.248c0,6.818-1.01,11.532-3.03,14.143
			c-1.769,2.189-4.399,3.282-7.893,3.282c-1.515,0-3.219-0.2-5.112-0.6c-1.895-0.399-3.579-0.914-5.052-1.545v18.688h-8.776v-50.572
			h7.261l1.516,3.346C325.042,286.776,326.59,285.913,328.463,285.155z M331.714,311.483c1.01,0,1.81-0.23,2.399-0.695
			c1.305-1.093,1.957-4.229,1.957-9.405c0-3.621-0.358-6.157-1.072-7.608c-0.717-1.453-1.812-2.179-3.284-2.179
			c-3.115,0-5.746,0.674-7.892,2.021v16.604C326.01,311.063,328.641,311.483,331.714,311.483z"/>
		<linearGradient id="SVGID_32_" gradientUnits="userSpaceOnUse" x1="363.4082" y1="280.3701" x2="363.4082" y2="324.0738">
			<stop  offset="0" style="stop-color:#000000"/>
			<stop  offset="1" style="stop-color:#414042"/>
		</linearGradient>
		<path fill="url(#SVGID_32_)" d="M350.276,286.039c3.832-1.516,8.946-2.271,15.343-2.271c3.872,0,6.852,0.809,8.935,2.43
			s3.123,4.41,3.123,8.365v23.361h-7.007l-1.832-3.662c-0.167,0.295-0.704,0.747-1.608,1.357c-0.905,0.61-2.156,1.21-3.757,1.8
			c-1.602,0.588-3.138,0.883-4.61,0.883c-3.115,0-5.515-0.894-7.197-2.683s-2.525-3.861-2.525-6.219v-3.156
			c0-2.694,0.801-4.903,2.399-6.63c1.6-1.725,4.062-2.578,7.387-2.558c3.325,0.023,5.811,0.031,7.449,0.031
			c1.644,0,2.463-0.02,2.463-0.062c0-0.674,0-1.189,0-1.548c0-0.357,0-0.558,0-0.6c0-1.683-0.357-2.787-1.073-3.315
			c-0.716-0.524-2.146-0.787-4.292-0.787c-2.147,0-6.547,0.23-13.196,0.692V286.039z M357.979,308.138
			c0,1.263,0.273,2.095,0.819,2.494c0.547,0.399,1.35,0.6,2.401,0.6c1.051,0,2.219-0.222,3.504-0.663
			c1.283-0.442,2.281-0.873,2.998-1.294l1.136-0.695v-6.124l-8.144,0.632c-1.81,0.168-2.715,1.304-2.715,3.409V308.138z"/>
		<linearGradient id="SVGID_33_" gradientUnits="userSpaceOnUse" x1="395.8604" y1="280.3682" x2="395.8604" y2="324.0735">
			<stop  offset="0" style="stop-color:#000000"/>
			<stop  offset="1" style="stop-color:#414042"/>
		</linearGradient>
		<path fill="url(#SVGID_33_)" d="M382.411,301.13c0-3.368,0.265-6.197,0.791-8.491c0.527-2.294,1.304-4.042,2.337-5.242
			c1.028-1.199,2.177-2.052,3.439-2.557s2.756-0.758,4.485-0.758c6.187,0,11.32,0.653,15.402,1.957v5.493
			c-3.998-0.251-7.188-0.379-9.563-0.379c-2.379,0-3.812,0.043-4.295,0.128c-0.483,0.084-1.021,0.294-1.608,0.63
			c-0.592,0.337-1.012,0.863-1.263,1.579c-0.59,1.727-0.886,4.178-0.886,7.354c0,3.18,0.201,5.462,0.601,6.853
			c0.4,1.387,0.987,2.303,1.768,2.744c0.778,0.442,2.01,0.663,3.692,0.663c3.411,0,6.841-0.146,10.292-0.44l1.706-0.127v5.556
			c-1.936,1.01-3.832,1.6-5.684,1.768c-2.736,0.253-5.112,0.378-7.134,0.378h-0.38c-1.6,0-2.481,0-2.648,0
			c-3.328,0-5.938-1.115-7.83-3.345C383.487,312.409,382.411,307.821,382.411,301.13z"/>
		<linearGradient id="SVGID_34_" gradientUnits="userSpaceOnUse" x1="423.04" y1="280.3691" x2="423.04" y2="324.0741">
			<stop  offset="0" style="stop-color:#000000"/>
			<stop  offset="1" style="stop-color:#414042"/>
		</linearGradient>
		<path fill="url(#SVGID_34_)" d="M412.148,291.091v-4.925l5.431-1.831l1.453-9.344h7.387v9.344h7.513v6.756h-7.513v13.449
			c0,2.271,0.229,3.85,0.696,4.734c0.46,0.882,1.176,1.514,2.145,1.895c2.526,0.882,3.936,1.325,4.229,1.325v5.43h-7.7
			c-5.474,0-8.209-3.999-8.209-11.997v-14.836H412.148z"/>
	</g>
</g>
</svg>
